<mxfile host="app.diagrams.net" modified="2023-04-04T02:27:13.007Z" agent="Mozilla/5.0 (Windows NT 10.0; Win64; x64) AppleWebKit/537.36 (KHTML, like Gecko) Chrome/111.0.0.0 Safari/537.36" etag="yKjWcQeH8cuoHACJDJRR" version="21.1.4" type="github">
  <diagram name="第 1 页" id="qj276N4pJbVU2gcIEsO6">
    <mxGraphModel dx="1195" dy="617" grid="1" gridSize="10" guides="1" tooltips="1" connect="1" arrows="1" fold="1" page="1" pageScale="1" pageWidth="827" pageHeight="1169" math="0" shadow="0">
      <root>
        <mxCell id="0" />
        <mxCell id="1" parent="0" />
        <mxCell id="2yONRmJt1zLSi2pbQKqU-5" value="" style="swimlane;childLayout=stackLayout;resizeParent=1;resizeParentMax=0;startSize=20;html=1;" vertex="1" parent="1">
          <mxGeometry x="100" y="20" width="580" height="290" as="geometry" />
        </mxCell>
        <mxCell id="2yONRmJt1zLSi2pbQKqU-6" value="内网区" style="swimlane;startSize=20;html=1;" vertex="1" parent="2yONRmJt1zLSi2pbQKqU-5">
          <mxGeometry y="20" width="350" height="270" as="geometry" />
        </mxCell>
        <mxCell id="2yONRmJt1zLSi2pbQKqU-2" value="mysql" style="shape=cube;whiteSpace=wrap;html=1;boundedLbl=1;backgroundOutline=1;darkOpacity=0.05;darkOpacity2=0.1;fillColor=#f8cecc;strokeColor=#b85450;" vertex="1" parent="2yONRmJt1zLSi2pbQKqU-6">
          <mxGeometry x="40" y="120" width="70" height="50" as="geometry" />
        </mxCell>
        <mxCell id="2yONRmJt1zLSi2pbQKqU-41" style="edgeStyle=orthogonalEdgeStyle;rounded=0;orthogonalLoop=1;jettySize=auto;html=1;exitX=0;exitY=0;exitDx=20;exitDy=60;exitPerimeter=0;entryX=0;entryY=0;entryDx=80;entryDy=35;entryPerimeter=0;" edge="1" parent="2yONRmJt1zLSi2pbQKqU-6" source="2yONRmJt1zLSi2pbQKqU-17" target="2yONRmJt1zLSi2pbQKqU-27">
          <mxGeometry relative="1" as="geometry" />
        </mxCell>
        <mxCell id="2yONRmJt1zLSi2pbQKqU-42" style="edgeStyle=orthogonalEdgeStyle;rounded=0;orthogonalLoop=1;jettySize=auto;html=1;exitX=0;exitY=0;exitDx=25;exitDy=0;exitPerimeter=0;entryX=0;entryY=0;entryDx=75;entryDy=20;entryPerimeter=0;" edge="1" parent="2yONRmJt1zLSi2pbQKqU-6" source="2yONRmJt1zLSi2pbQKqU-17" target="2yONRmJt1zLSi2pbQKqU-19">
          <mxGeometry relative="1" as="geometry" />
        </mxCell>
        <mxCell id="2yONRmJt1zLSi2pbQKqU-17" value="nginx" style="shape=cube;whiteSpace=wrap;html=1;boundedLbl=1;backgroundOutline=1;darkOpacity=0.05;darkOpacity2=0.1;fillColor=#d5e8d4;strokeColor=#82b366;" vertex="1" parent="2yONRmJt1zLSi2pbQKqU-6">
          <mxGeometry x="214.97" y="120" width="70" height="60" as="geometry" />
        </mxCell>
        <mxCell id="2yONRmJt1zLSi2pbQKqU-43" style="edgeStyle=orthogonalEdgeStyle;rounded=0;orthogonalLoop=1;jettySize=auto;html=1;exitX=0;exitY=0;exitDx=0;exitDy=15;exitPerimeter=0;entryX=0;entryY=0;entryDx=25;entryDy=0;entryPerimeter=0;" edge="1" parent="2yONRmJt1zLSi2pbQKqU-6" source="2yONRmJt1zLSi2pbQKqU-19" target="2yONRmJt1zLSi2pbQKqU-2">
          <mxGeometry relative="1" as="geometry" />
        </mxCell>
        <mxCell id="2yONRmJt1zLSi2pbQKqU-19" value="tomcat" style="shape=cube;whiteSpace=wrap;html=1;boundedLbl=1;backgroundOutline=1;darkOpacity=0.05;darkOpacity2=0.1;fillColor=#e1d5e7;strokeColor=#9673a6;" vertex="1" parent="2yONRmJt1zLSi2pbQKqU-6">
          <mxGeometry x="134.97" y="70" width="75" height="50" as="geometry" />
        </mxCell>
        <mxCell id="2yONRmJt1zLSi2pbQKqU-44" style="edgeStyle=orthogonalEdgeStyle;rounded=0;orthogonalLoop=1;jettySize=auto;html=1;exitX=0;exitY=0;exitDx=10;exitDy=40;exitPerimeter=0;entryX=0;entryY=0;entryDx=20;entryDy=50;entryPerimeter=0;" edge="1" parent="2yONRmJt1zLSi2pbQKqU-6" source="2yONRmJt1zLSi2pbQKqU-27" target="2yONRmJt1zLSi2pbQKqU-2">
          <mxGeometry relative="1" as="geometry" />
        </mxCell>
        <mxCell id="2yONRmJt1zLSi2pbQKqU-27" value="tomcat" style="shape=cube;whiteSpace=wrap;html=1;boundedLbl=1;backgroundOutline=1;darkOpacity=0.05;darkOpacity2=0.1;fillColor=#e1d5e7;strokeColor=#9673a6;" vertex="1" parent="2yONRmJt1zLSi2pbQKqU-6">
          <mxGeometry x="134.97" y="190" width="80" height="50" as="geometry" />
        </mxCell>
        <mxCell id="2yONRmJt1zLSi2pbQKqU-7" value="防火墙" style="swimlane;startSize=20;html=1;" vertex="1" parent="2yONRmJt1zLSi2pbQKqU-5">
          <mxGeometry x="350" y="20" width="110" height="270" as="geometry" />
        </mxCell>
        <mxCell id="2yONRmJt1zLSi2pbQKqU-13" value="" style="html=1;points=[];perimeter=orthogonalPerimeter;outlineConnect=0;targetShapes=umlLifeline;portConstraint=eastwest;newEdgeStyle={&quot;edgeStyle&quot;:&quot;elbowEdgeStyle&quot;,&quot;elbow&quot;:&quot;vertical&quot;,&quot;curved&quot;:0,&quot;rounded&quot;:0};fillColor=#ffe6cc;strokeColor=#d79b00;" vertex="1" parent="2yONRmJt1zLSi2pbQKqU-7">
          <mxGeometry x="50" y="37.5" width="10" height="225" as="geometry" />
        </mxCell>
        <mxCell id="2yONRmJt1zLSi2pbQKqU-26" value="" style="shape=doubleArrow;whiteSpace=wrap;html=1;fillColor=#fff2cc;strokeColor=#d6b656;" vertex="1" parent="2yONRmJt1zLSi2pbQKqU-7">
          <mxGeometry x="-56" y="132.5" width="100" height="35" as="geometry" />
        </mxCell>
        <mxCell id="2yONRmJt1zLSi2pbQKqU-8" value="用户侧" style="swimlane;startSize=20;html=1;" vertex="1" parent="2yONRmJt1zLSi2pbQKqU-5">
          <mxGeometry x="460" y="20" width="120" height="270" as="geometry" />
        </mxCell>
        <mxCell id="2yONRmJt1zLSi2pbQKqU-22" value="" style="shape=actor;whiteSpace=wrap;html=1;fillColor=#dae8fc;strokeColor=#6c8ebf;" vertex="1" parent="2yONRmJt1zLSi2pbQKqU-8">
          <mxGeometry x="60" y="117.5" width="40" height="60" as="geometry" />
        </mxCell>
        <mxCell id="2yONRmJt1zLSi2pbQKqU-25" value="" style="shape=doubleArrow;whiteSpace=wrap;html=1;fillColor=#fff2cc;strokeColor=#d6b656;" vertex="1" parent="2yONRmJt1zLSi2pbQKqU-8">
          <mxGeometry x="-40" y="130" width="100" height="35" as="geometry" />
        </mxCell>
        <mxCell id="2yONRmJt1zLSi2pbQKqU-36" value="用户侧" style="swimlane;startSize=20;html=1;" vertex="1" parent="2yONRmJt1zLSi2pbQKqU-8">
          <mxGeometry width="120" height="270" as="geometry" />
        </mxCell>
        <mxCell id="2yONRmJt1zLSi2pbQKqU-37" value="" style="shape=actor;whiteSpace=wrap;html=1;fillColor=#dae8fc;strokeColor=#6c8ebf;" vertex="1" parent="2yONRmJt1zLSi2pbQKqU-36">
          <mxGeometry x="60" y="117.5" width="40" height="60" as="geometry" />
        </mxCell>
        <mxCell id="2yONRmJt1zLSi2pbQKqU-38" value="" style="shape=doubleArrow;whiteSpace=wrap;html=1;fillColor=#fff2cc;strokeColor=#d6b656;" vertex="1" parent="2yONRmJt1zLSi2pbQKqU-36">
          <mxGeometry x="-40" y="130" width="100" height="35" as="geometry" />
        </mxCell>
        <mxCell id="2yONRmJt1zLSi2pbQKqU-40" value="" style="shape=doubleArrow;whiteSpace=wrap;html=1;fillColor=#fff2cc;strokeColor=#d6b656;" vertex="1" parent="2yONRmJt1zLSi2pbQKqU-36">
          <mxGeometry x="-40" y="130" width="100" height="35" as="geometry" />
        </mxCell>
      </root>
    </mxGraphModel>
  </diagram>
</mxfile>
